<?xml version="1.0" encoding="UTF-8"?>
<svg id="Layer_1" xmlns="http://www.w3.org/2000/svg" version="1.1" viewBox="0 0 500 500">
  <!-- Generator: Adobe Illustrator 29.1.0, SVG Export Plug-In . SVG Version: 2.1.0 Build 142)  -->
  <defs>
    <style>
      .st0 {
        fill: #231f20;
      }
    </style>
  </defs>
  <path d="M478.06,213.01c-3,3.62-6.26,6.55-9.42,9.96-9.31,10.05-18.33,20.39-27.64,30.45-13.61,14.72-22.72,26.65-45.17,19.65-22.45-7-45.04-17.06-67.26-24.91-11.93-6.37-21.99-16.63-25.3-30.08-3.6-22.69-9.01-45.18-12.47-67.86-4.32-28.31,11.45-38.68,28.7-56.87,9.91-10.45,19.97-21.76,30.45-31.64,13.89-13.09,28.5-13.97,45.62-6.34,17.06,7.6,35.88,16.42,52.41,25.05,19.12,10,20.26,24.05,25.26,42.92,2.67,10.07,5.6,20.18,8.14,30.27,5.37,21.36,12.45,40.44-3.31,59.41ZM398.41,155.42c3.13,3.16,5.68,4.62,9.68,6.48,20.36,9.47,42.57,16.72,63.19,25.79,4.84,1.9,8.45-2.09,7.53-6.89-6.58-23.19-11.22-47-17.86-70.16-3.04-10.62-6.41-16.41-16.35-21.74-19.31-8.19-38.33-19.65-57.67-27.47-4.96-2.01-8.93-2.95-10.72,3.41,3.53,19.59,7.26,39.14,11.05,58.68,2.21,11.41,2.52,23.17,11.16,31.89ZM373.06,170.43c1.35-1.52,3.06-2.87,4.36-4.44,10.98-13.33,6.22-27.39,3.44-42.79-2.63-14.59-5.65-29.17-8.46-43.71-.65-3.38-1.36-11.65-3.12-14.16-2.53-3.63-6.3-2.66-9.28-.3-6.39,5.06-13.48,13.7-19.37,19.67-10.23,10.36-21.1,20.77-30.89,31.52-7.06,7.76-11.26,15.15-11.03,26.09,5.28,24.02,7.99,49.35,13.52,73.22,1.31,5.65,2.66,10.84,9.86,9.38,1.36-.28,3.3-1.76,4.32-2.72,6.96-6.64,13.91-15.76,20.52-23.02,8.69-9.55,17.52-19.05,26.15-28.73ZM470.44,207.96c1.4-1.66,2.25-2.44,2.86-4.67,1.19-4.34-.82-7.36-4.42-9.67-15.33-6.31-30.71-12.38-46.08-18.57-6.48-2.61-13.54-6.27-20.07-8.41-11.29-3.7-18.85,1.85-26.13,9.55-16.26,17.19-31.59,35.37-47.34,53-2.27,4.76-1.18,8.04,3.36,10.43,7.69,4.06,19.18,7.07,27.54,10.23,12.81,4.83,26.7,11.13,39.63,15.1,8.23,2.53,15.01,1.49,21.67-4.05,15.61-17.97,33.73-34.79,48.99-52.95Z"/>
  <path d="M242.36,180.89c.84.84.27,1.59.39,2.32.89,5.4,2.72,12.62,5.48,17.41,1.18,2.04,4.66,5.1,5.18,7.15.09.34.28.65,0,.98-.33.46-2,.35-2.6.31-3.39-.19-6.85-.82-10.23-.97-5.43-.23-10.85.61-16.26.91-.3-.07-.74-.49-.8-.79-.24-1.21,2.77-4.07,3.59-5.27,4.09-5.95,6.04-12.71,7.21-19.67.13-.76-.04-1.61.01-2.38-4.69,4.47-10.43,9.12-17.28,8.96l-.51-5.14c3.62-.57,6.81-1.46,9.47-4.14-1.6.48-2.7,1.42-4.41,1.83-1.85.43-3.88.52-5.77.34-1.72-3.52-3.48-6.77-6.3-9.52l-6.89-6.26c.28-5.02,2.19-9.26,4.8-13.45,6.66-10.69,17.79-18.74,24.4-29.7.47-.78,3.72-6.65,3.46-6.94-.87-.19-.55.26-.79.63-1.65,2.54-3.73,5.48-5.62,7.84-8.54,10.7-21.21,18.98-26.93,31.64-1.07,2.36-2.33,4.91-2.19,7.58l-4.73-4.04c1.38-4.87,3.72-9.9,6.71-13.99,8.19-11.17,20.15-19.58,28.25-31.28,3.51-5.07,6.03-10.75,8.67-16.3,2.22,5.7,5.18,11.58,8.67,16.61,12.31,17.77,41.59,34.26,34.54,59.24-4.38,15.52-21.35,19.56-34.01,10.63-1.75-1.24-3.02-2.86-4.56-4.08-.32-.25-.41-.62-.96-.47ZM248.24,125.72c-2.4-3.04-4.22-6.54-6.52-9.65-.22-.3-.54-.53-.8-.8-.45.57.57,1.39.86,2.02,1.77,3.7,4.07,7.68,6.52,11.08,8.12,11.21,25.78,23.91,26,38.59.16,10.67-5.78,16.95-16.7,15.8-2.08-.22-3.23-.98-5.02-1.7-.31-.13-.98-.49-.94.14,14.87,10.33,29.71-3.39,25.12-19.83-3.99-14.28-19.59-24.33-28.53-35.65ZM234.36,202.97l2.19-1.17c.33-3.7,1.71-7.23,1.33-10.99l-1.05,4.87c-.38,1.13-2.88,6.72-2.47,7.29Z"/>
  <path d="M313.42,90.31v-34.41c0-5.03-4.51-9.59-9.43-10.1h-131.56c-3.48.06-8.48,5.65-8.48,8.82v27.05l-5.46-1.16c.47-8.36-.56-17.29,0-25.58.47-6.91,4.94-12.12,11.45-14.16,44.84-.91,89.79-.14,134.67-.39,21.25,3.08,12.4,28.86,14.23,43.67-.26,1.66-4.24,4.82-5.42,6.26Z"/>
  <path d="M170.83,80.06c-.6-.56-.88-1.16-.74-2,.41-2.56,2.4-1.04,2.86-1.71.66-2.98,1.84-5.81,2.75-8.71.29-.94.31-2.1.66-3.18.7-2.2,2.07-7.01,3.03-8.81.75-1.38,3.13-1.45,4.1-.08,1.43,2.02,2.48,8.17,3.29,10.79.64,2.05,1.68,4.28,2.3,6.34.32,1.06.25,3.47,1.34,3.78s2.21-.48,2.59,1.26c.3,1.37.04,2.08-1.39,2.31-.93.14-6.58.15-7.18-.14-.91-.44-.68-2.13-.59-3l2.51-.37-1.43-3.85-6.67-.32-1.81,3.69c.53.77,1.51.29,2.24.64,1.19.56.61,3.36-.16,3.36h-7.68ZM183.47,69.18l-.73-4.23-1.51-3.45c-.45,2.62-2.24,4.92-1.93,7.68h4.16Z"/>
  <path d="M304.62,236.26c.47.13,2.62,2.7,2.08,3.2l-1.95.2-7.19,21.22c-1.05.61-2.2.29-3.28-.04l-6.71-20.33c-.54-1.09-1.13-1.12-2.3-1.06-.18-1.57-.53-2.85,1.45-3.17.8-.13,6.1-.17,6.66.02.67.23,1.1,2.33.71,2.86-.16.21-2.34,1.05-2.74.62-.22.88.47.43.7,1.07.28.79.16,1.67.4,2.47l7,.31,1.5-3.85c-2.89.4-2.67-1.31-2.24-3.52,1.57.28,4.57-.39,5.92,0ZM298.7,247.14c-1.79.06-3.36-.75-5.12,0l2.24,7.04c.82.13.5-.07.67-.45.91-2.02,1.02-4.62,2.21-6.59Z"/>
  <path d="M295.82,211.93c.49,5.52,2.28,10.96,4.14,16.17-.01.26-2.57,4.04-2.9,4.43-.59.69-.73.82-1.34.13-.73-.82-1.43-2.34-2.15-3.2-1.94-2.31-6.24-5.57-6.41-8.72-.18-3.35,2.3-5.61,5.62-4.96.68.13,2.35,1.95,2.73,1.59l-2.24-5.44h2.56Z"/>
  <path d="M184.94,96.19c-.67-1.2-2.28-3.24-3.22-4.29-.58-.65-3.59-3.17-3.66-3.41-.21-.79,3.29-4.1,3.18-5.54.25-.19,2.85,3.85,3.2,4.31,2.53,3.27,7.1,6.6,5.61,11.39-.24.76-2.5,3.18-3.21,2.22-.5-.67-1.28-3.57-1.9-4.67Z"/>
  <path d="M358.46,219.69c4.03-.63,7.93-.18,10.97,2.64,3.28,3.03,2.98,7.88.31,11.2-4.47,5.56-14.23,8.1-20.26,3.63-4.82-3.58-3.1-10.27.9-13.71,1.22-1.05,6.51-3.51,8.08-3.76Z"/>
  <path d="M413.1,212.11c6.3,6.63-2.08,14.12-8.64,15.81-4.09,1.05-8.91.79-12.15-2.21-9.75-9.04,11.62-23.26,20.79-13.6Z"/>
  <path d="M435.82,203.42c4.06-4.79,14.55-6.9,19.55-2.7,3.53,2.97,3.27,6.85.92,10.54-3.68,5.78-14.41,8.67-20.13,4.51-4.37-3.17-3.5-8.62-.34-12.35Z"/>
  <path d="M343.41,127.22c1.93.03,4.18,2.23,4.75,4.04,2.35,7.53-2.04,23.06-10.98,23.95-2.62.26-5.26-1.99-6.06-4.34-2.49-7.37,3.23-23.81,12.3-23.65Z"/>
  <path d="M419.24,151.33c-1.1,1.69-4.14,1.94-5.98,1.57-2.82-.57-7.36-3.91-9.26-6.11-3.22-3.74-8.95-15.74-2.22-18.53,5.43-2.25,12.19,3.8,14.96,8.03,2.45,3.74,5.16,10.94,2.49,15.04Z"/>
  <path d="M428.19,113.16c4.83,3.59,10.1,10.97,9.63,17.27-.11,1.44-1.87,4.26-3.34,4.6-6.75,1.57-15.39-8.8-17.28-14.56-3.13-9.57,3.48-12.87,10.98-7.3Z"/>
  <path d="M457.96,149.97c4.51,3.37,9.74,11.7,8.63,17.49-1.75,9.09-11.7,2.32-15.23-1.77-2.37-2.74-6.58-11.35-5.19-14.81.12-.31,1.37-1.9,1.67-2.17,3.03-2.79,7.28-.86,10.12,1.26Z"/>
  <path d="M396.45,94.98c-3.59-3.02-7.6-9.34-7.82-14.1-.2-4.35,2.59-7.26,6.99-6.04,6.25,1.73,13.21,10.5,13.78,16.94.87,9.79-7.84,7.49-12.95,3.19Z"/>
  <path d="M447.41,99.7c3.19,3.19,7.2,10.4,6.37,14.95-1.28,6.96-9.04,3.53-12.66.47-3.83-3.24-9.26-11.43-7.2-16.49,2.58-6.33,10.05-2.37,13.49,1.07Z"/>
  <path d="M154.57,313.23l-29-51.14c-.21-.37-.52-.6-.67-.51l-3.09,1.88c-.15.09-.09.47.14.83l32.09,49.26c.49.76.97.46.53-.32Z"/>
  <path d="M79.51,250.73l-34.63-54.1c-.25-.39-.29-.82-.08-.94l4.15-2.44c.21-.12.57.12.79.53l30.48,56.54c.47.87-.18,1.25-.71.42Z"/>
  <path d="M179.56,315.06l-34.26-64.67c-.25-.46-.77-.67-1.14-.45l-7.42,4.52c-.37.22-.43.78-.13,1.22l41.68,60.15c.64.92,1.79.22,1.26-.77Z"/>
  <path d="M190.06,284.82l-24.63-46.19c-.18-.33-.54-.48-.79-.33l-5.07,3.08c-.25.15-.28.55-.07.86l29.7,43.11c.46.66,1.24.18.86-.53Z"/>
  <path d="M292.84,319.56l53.46-49.92c.38-.36.49-.88.22-1.14l-5.32-5.14c-.26-.26-.78-.14-1.13.26l-48.15,55.07c-.74.85.09,1.64.91.88Z"/>
  <path d="M351.16,324.4l42.18-38.14c.3-.27.33-.73.06-.99l-5.44-5.27c-.27-.26-.72-.22-.99.09l-36.74,43.41c-.56.67.28,1.48.93.9Z"/>
  <path d="M257.04,231.28l35.51-32.94c.26-.24.31-.59.13-.77l-3.75-3.63c-.19-.18-.54-.11-.77.15l-31.76,36.57c-.49.56.09,1.12.64.62Z"/>
  <path d="M288.06,295.32l38.48-35.49c.28-.26.33-.65.12-.85l-4.26-4.13c-.21-.2-.6-.14-.85.15l-34.22,39.62c-.53.61.14,1.25.73.7Z"/>
  <g>
    <path d="M62.52,224.18l8.43,13.17c-.15-1.87-.37-3.71-.69-5.52l-8.13-15.09c.12,2.48.26,4.96.4,7.44Z"/>
    <path d="M210.65,188.11c-.13-1.02-.98-3.7-1.42-4.67-2.45-5.41-15.86-15.92-20.96-20.33-9.25-8.01-18.95-15.58-27.85-24l11.69-10.38c17.44-17.33,10.45-36.84-13.23-41.53-10.96-2.17-22.62-1.58-33.67-.42-.35-11.54-5.34-21.76-13.65-29.55-10.93-10.24-23.8-12.07-37.53-6.1-8.52,3.71-26.06,12.45-32.25,18.8-9.79,10.05-12.73,25.03-8.66,38.36,2.44,7.99,7.2,14.71,13.34,20.26-4.31,4.51-8.87,8.89-12.96,13.6-5.75,6.61-17.09,21.06-18.05,29.64-1.76,15.79,10.8,24.03,25.33,20.21l19.12-5.36c.29,4.64.95,9.29,1.28,13.93.22,3.05.39,6.11.56,9.17l7.92,14.7c-.71-12.28-.7-24.98-2.43-36.95-.28-1.91-1.07-7.87-3.07-8.45-1.98-.58-7.18.81-9.39,1.36-7.13,1.79-19.55,7.15-26.35,4.28-6.16-2.6-6.87-9.62-4.83-15.3,2.96-8.23,15.15-22.59,21.42-29.15,2.82-2.95,6.62-5.72,9.3-8.63,1.32-1.43,2.04-3.71.93-5.44-4.76-3.77-8.86-7.37-11.93-12.71-18.35-31.91,19.42-62.64,44.88-37.03,5.6,5.64,9.48,14.04,10.11,22.05.18,2.3-.56,7.27.64,8.96,1.03,1.44,3.07,1.17,4.66,1.13,15.06-.45,38.89-4.14,52.37,3.54,6.36,3.62,7.68,12.77,2.72,18.1-4,4.29-15.38,11.34-20.72,14.97-.97.65-1.91.21-2.19,1.96-.56,3.46,2.48,5.46,4.77,7.67,16.4,15.76,34.8,29.19,51.54,44.48,3.3,3.01,7.46,7.35,4.3,11.99-.4.59-1.09,1.09-1.58,1.62-10.19,4.81-21.08,10.51-31.62,14.47-2.63.99-4.38,1.31-6.92-.24-10.18-6.22-19.9-15.89-30.01-22.48-3.46-2.69-8.14-1.14-8.71,3.33-.92,7.12-.4,15.75-.65,23.03-.17,5.05.05,11.79-.67,16.61-.51,3.38-4.84,4.23-7.31,5.5-9.03,4.63-18.13,9.14-27.13,13.84-4.16,2.51-9.16-2.21-9.69-6.22-.72-5.52-.66-11.43-.84-17.29l-8.23-12.85c1.57,10.42.62,21.79,2.07,32.01,1.11,7.84,10.18,14.46,17.99,11.42,10.04-4.93,20.34-9.64,30.23-14.9,7.55-4.02,12.3-9.64,17.81-16.12,2.59-3.05,6.45-7.31,6.88-11.36.32-3.04-.44-6.09-.32-9.12l16,11.37c4.23,2.18,7.74,1.85,12.06.21,7.54-2.86,16.08-6.76,23.47-10.14,4.14-1.89,9.92-4.11,12.8-7.69,3.56-4.42,9.33-22.61,8.62-28.13ZM103.46,97.99c-.67-4.55-1.24-8.84-3.05-13.11-5.37-12.66-16.68-21.61-30.55-22.89,4.54-2.95,10.25-5.81,15.61-6.8,7.9-1.46,16.55,2.93,21.96,8.43,3.01,3.06,6.04,7.34,7.71,11.33,1.25,2.96,3.3,10.24,2.72,13.27-.25,1.32-4.71,2.71-5.86,3.74l-8.54,6.02ZM109.71,102.8c-.34.02-1.51.22-1.45-.33l11.93-7.43c12.82-2.13,43.42-4.96,51.76,7.27,4.28,6.28,2.02,13.89-2.99,18.93-.21.22-1.6,1.29-1.81,1.07-.19-4.89-1.61-9.13-5.27-12.49-10.77-9.88-38.43-7.98-52.17-7.02ZM130.26,232.17c-.58,2.25-4.42,6.45-6.16,8.25-.33.34-.56.75-1.12.63l.8-30.08,6.42,5.42c-.3,4.91,1.28,11.08.06,15.78ZM200.75,200.73l-57.93-51.37c3.72-1.76,6.84-4.7,10.46-6.83.28-.02,3.75,3.14,4.29,3.62.33.3.46.77.73,1.02,11.9,10.9,24.71,20.85,36.7,31.63,2.33,2.1,7.74,6.7,8.24,9.68.75,4.43-1.49,8.12-2.49,12.24Z"/>
  </g>
  <g>
    <path d="M163.95,248.7v-7.32c-.84.54-3.29.13-4.59.36-.02.16.03.34.14.5l4.45,6.46Z"/>
    <path d="M318.71,253.69c.01-1.3.03-2.57.09-3.77l-5.38-4.38v14.28l5.29-6.13Z"/>
    <path d="M306.77,273.61c5.22-.62,10.38-6.01,11.37-11.03.26-1.31.39-2.73.46-4.18l-13.14,15.21h1.3Z"/>
    <path d="M173.37,268.6c-4.55.06-9.43-4.59-9.43-9.14v-5.47l-5.36-7.78c-.08,5.25-.52,10.75.32,15.74,1.02,6.09,6.06,11.07,12.23,11.78h6.4s-3.52-5.12-3.52-5.12h-.64Z"/>
    <polygon points="177.65 268.6 181.18 273.71 184.13 273.71 181.41 268.6 177.65 268.6"/>
    <path d="M306.09,268.31c-.52.17-1.02.28-1.48.27l-119.81.02,2.72,5.11,113.97-.08,4.59-5.31Z"/>
  </g>
  <g>
    <path class="st0" d="M77.39,374.2h49.92v9.12h-49.92v-9.12ZM96.35,382.7h12v22.22h-12v-22.22Z"/>
    <path class="st0" d="M145.46,405.59c-3.46,0-6.53-.49-9.22-1.46s-4.81-2.39-6.36-4.25c-1.55-1.86-2.33-4.1-2.33-6.72s.78-5.06,2.33-6.91c1.55-1.86,3.67-3.25,6.36-4.18s5.76-1.39,9.22-1.39c3.84,0,7.16.52,9.96,1.56,2.8,1.04,4.96,2.5,6.48,4.37,1.52,1.87,2.28,4.06,2.28,6.55,0,1.86-.43,3.54-1.3,5.06-.86,1.52-2.11,2.83-3.74,3.94-1.63,1.1-3.6,1.95-5.9,2.54-2.3.59-4.9.89-7.78.89ZM149.78,398.3c2.43,0,4.66-.15,6.7-.46,2.03-.3,3.66-.82,4.9-1.56,1.23-.74,1.85-1.78,1.85-3.12s-.62-2.43-1.85-3.17c-1.23-.74-2.86-1.25-4.9-1.54-2.03-.29-4.26-.43-6.7-.43-3.26,0-5.79.42-7.58,1.27-1.79.85-2.69,2.14-2.69,3.86,0,1.12.4,2.06,1.2,2.83.8.77,1.97,1.34,3.5,1.73s3.39.58,5.57.58ZM163.22,381.4h11.52v23.52h-10.85c-.22-1.47-.39-2.9-.5-4.27-.11-1.38-.17-2.99-.17-4.85v-14.4Z"/>
    <path class="st0" d="M191.78,371.8v24c0,2.05-.07,3.9-.22,5.54-.14,1.65-.3,2.84-.46,3.58h-10.85v-33.12h11.52ZM209.54,405.59c-2.88,0-5.47-.3-7.78-.89-2.3-.59-4.27-1.44-5.9-2.54-1.63-1.1-2.88-2.42-3.74-3.94-.86-1.52-1.3-3.21-1.3-5.06s.43-3.55,1.3-5.09c.86-1.54,2.11-2.86,3.74-3.96,1.63-1.1,3.6-1.95,5.9-2.54,2.3-.59,4.9-.89,7.78-.89,3.46,0,6.54.46,9.24,1.39,2.7.93,4.82,2.32,6.36,4.18,1.54,1.86,2.3,4.16,2.3,6.91s-.77,4.86-2.3,6.72c-1.54,1.86-3.66,3.27-6.36,4.25-2.7.98-5.78,1.46-9.24,1.46ZM205.22,398.3c2.18,0,4.03-.19,5.57-.58,1.54-.38,2.7-.96,3.5-1.73.8-.77,1.2-1.71,1.2-2.83,0-1.73-.9-3.02-2.69-3.86-1.79-.85-4.32-1.27-7.58-1.27-2.43,0-4.66.14-6.7.43-2.03.29-3.66.8-4.9,1.54-1.23.74-1.85,1.79-1.85,3.17s.62,2.38,1.85,3.12c1.23.74,2.86,1.26,4.9,1.56,2.03.3,4.26.46,6.7.46Z"/>
    <path class="st0" d="M232,371.8h11.52v33.12h-11.52v-33.12Z"/>
    <path class="st0" d="M281.01,396.47h11.33c-.29,1.86-1.21,3.47-2.76,4.85-1.55,1.38-3.81,2.44-6.77,3.19-2.96.75-6.73,1.13-11.3,1.13-4.83,0-9-.38-12.5-1.15-3.5-.77-6.2-2.06-8.09-3.89-1.89-1.82-2.83-4.29-2.83-7.39s.92-5.53,2.76-7.37c1.84-1.84,4.5-3.16,7.99-3.96s7.71-1.2,12.67-1.2,8.85.43,11.95,1.3c3.1.86,5.39,2.26,6.86,4.2,1.47,1.94,2.18,4.55,2.11,7.85h-32.64c.16.83.62,1.6,1.37,2.3s1.92,1.27,3.5,1.7c1.58.43,3.7.65,6.36.65s5.02-.19,6.79-.58c1.78-.38,2.84-.93,3.19-1.63ZM271.02,387.64c-3.39,0-5.98.37-7.75,1.1s-2.82,1.47-3.14,2.21h21.12c-.22-.83-1.12-1.59-2.69-2.28-1.57-.69-4.08-1.03-7.54-1.03Z"/>
    <path class="st0" d="M295.07,381.4h28.22v7.2h-28.22v-7.2ZM303.42,374.2h11.52v30.72h-11.52v-30.72Z"/>
    <path class="st0" d="M348.74,405.64c-5.09,0-9.32-.42-12.7-1.25-3.38-.83-5.9-2.16-7.58-3.98-1.68-1.82-2.52-4.22-2.52-7.2s.84-5.38,2.52-7.22c1.68-1.84,4.21-3.18,7.58-4.03,3.38-.85,7.61-1.27,12.7-1.27s9.25.42,12.6,1.27c3.34.85,5.85,2.19,7.51,4.03s2.5,4.25,2.5,7.22-.83,5.38-2.5,7.2c-1.66,1.82-4.17,3.15-7.51,3.98-3.34.83-7.54,1.25-12.6,1.25ZM348.74,398.68c2.37,0,4.35-.2,5.95-.6s2.82-1.01,3.65-1.82c.83-.82,1.25-1.83,1.25-3.05s-.41-2.24-1.22-3.07c-.82-.83-2.02-1.46-3.62-1.87-1.6-.42-3.6-.62-6-.62s-4.38.21-6.02.62c-1.65.42-2.9,1.03-3.74,1.85-.85.82-1.27,1.85-1.27,3.1s.42,2.23,1.25,3.05c.83.82,2.07,1.42,3.72,1.82,1.65.4,3.67.6,6.07.6Z"/>
    <path class="st0" d="M375.18,381.4h10.85l.67,9.12v24h-11.52v-33.12ZM404.46,405.64c-2.88,0-5.47-.3-7.78-.89s-4.27-1.44-5.9-2.54c-1.63-1.1-2.88-2.42-3.74-3.96-.86-1.54-1.3-3.23-1.3-5.09s.43-3.54,1.3-5.06c.86-1.52,2.11-2.83,3.74-3.94,1.63-1.1,3.6-1.95,5.9-2.54s4.9-.89,7.78-.89c3.46,0,6.54.49,9.24,1.46,2.7.98,4.82,2.39,6.36,4.25,1.54,1.86,2.3,4.1,2.3,6.72s-.77,5.06-2.3,6.91-3.66,3.25-6.36,4.18-5.78,1.39-9.24,1.39ZM400.14,398.3c2.18,0,4.03-.19,5.57-.58,1.54-.38,2.7-.95,3.5-1.7.8-.75,1.2-1.7,1.2-2.86,0-1.7-.9-2.98-2.69-3.84-1.79-.86-4.32-1.3-7.58-1.3-2.43,0-4.66.14-6.7.43s-3.66.81-4.9,1.56c-1.23.75-1.85,1.8-1.85,3.14s.62,2.39,1.85,3.14c1.23.75,2.86,1.27,4.9,1.56s4.26.43,6.7.43Z"/>
    <path class="st0" d="M161.37,431.8h49.92v9.12h-49.92v-9.12ZM180.33,440.3h12v22.22h-12v-22.22Z"/>
    <path class="st0" d="M229.43,463.19c-3.46,0-6.53-.49-9.22-1.46s-4.81-2.39-6.36-4.25c-1.55-1.86-2.33-4.1-2.33-6.72s.78-5.06,2.33-6.91c1.55-1.86,3.67-3.25,6.36-4.18s5.76-1.39,9.22-1.39c3.84,0,7.16.52,9.96,1.56,2.8,1.04,4.96,2.5,6.48,4.37,1.52,1.87,2.28,4.06,2.28,6.55,0,1.86-.43,3.54-1.3,5.06-.86,1.52-2.11,2.83-3.74,3.94-1.63,1.1-3.6,1.95-5.9,2.54-2.3.59-4.9.89-7.78.89ZM233.75,455.9c2.43,0,4.66-.15,6.7-.46,2.03-.3,3.66-.82,4.9-1.56,1.23-.74,1.85-1.78,1.85-3.12s-.62-2.43-1.85-3.17c-1.23-.74-2.86-1.25-4.9-1.54-2.03-.29-4.26-.43-6.7-.43-3.26,0-5.79.42-7.58,1.27-1.79.85-2.69,2.14-2.69,3.86,0,1.12.4,2.06,1.2,2.83.8.77,1.97,1.34,3.5,1.73s3.39.58,5.57.58ZM247.19,439h11.52v23.52h-10.85c-.22-1.47-.39-2.9-.5-4.27-.11-1.38-.17-2.99-.17-4.85v-14.4Z"/>
    <path class="st0" d="M263.75,429.4h11.52v33.12h-11.52v-33.12Z"/>
    <path class="st0" d="M281.03,429.4h11.52v33.12h-11.52v-33.12Z"/>
    <path class="st0" d="M295.67,439h12.24l14.02,22.56-9.94.96-16.32-23.52ZM339.83,439l-23.38,33.12h-11.76l10.03-13.58,12.86-19.54h12.24Z"/>
  </g>
</svg>